<?xml version="1.0" encoding="utf-8"?>
<!-- Generator: Adobe Illustrator 22.1.0, SVG Export Plug-In . SVG Version: 6.00 Build 0)  -->
<svg version="1.1" id="Layer_1" xmlns="http://www.w3.org/2000/svg" xmlns:xlink="http://www.w3.org/1999/xlink" x="0px" y="0px"
	 viewBox="0 0 100 100" style="enable-background:new 0 0 100 100;" xml:space="preserve">
<style type="text/css">
	.st0{stroke:#FFFFFF;stroke-miterlimit:10;}
</style>
<path class="st0" d="M96.9,65.9c-1.7-5.6-4.6-11.2-7-13.5L81.3,44l-1.5-3.1L46.5,7.6l-1.8,0.6l-4-3.9c-2.9-2.8-5.6-4-9-4
	c-2.5,0-5.4,0.7-9.3,2.3c-0.9,0.4-2,0.8-3.1,1.2C13.1,6.2,5.4,9.2,2.5,13.1c-3.8,5.1,1.9,21.4,5.2,24.8l2.4,3l0.6,1.6l35,37.7
	l0.8-0.5l7.1,8c4.9,5.4,8.5,9.4,14,9.4c3,0,6.3-1.2,10.8-3.8l18.1-12.5l0.3-0.2C99.7,77.5,98.5,70.9,96.9,65.9z M87.2,55.3
	c0.6,0.5,1.2,1.4,1.8,2.4c-0.2,0.3-0.4,0.5-0.5,0.5L59.9,74.8c-0.5-0.8-1.1-1.7-1.8-2.3c-0.6-0.6-5-5.2-10.9-11.5l29.4-16.1
	L87.2,55.3z M76.1,42.9L45.8,59.5C35.1,48.3,20.4,32.8,12.7,24.8l32.5-13.1L76.1,42.9z M20.7,7.5c1.2-0.5,2.3-0.9,3.2-1.3
	c3.3-1.4,5.8-2,7.8-2c2.3,0,4.1,0.8,6.2,2.9l3.8,3.7L11.2,23.2c-2.1-2.2-3.4-3.6-3.5-3.7c-1.5-1.5-2.1-2.7-2-4.1
	C8,12.5,15.6,9.5,20.7,7.5z M10.5,35.1c-1.9-1.8-4.8-10-5.3-15.4c0.4,0.5,0.7,0.9,1.1,1.2c0.1,0.1,1.5,1.6,3.7,3.9l0.9,10.8
	l-0.3-0.3L10.5,35.1z M13.3,39.5l-0.1-1l-1-11.3c7.5,7.8,20.7,21.8,32.4,34l0,12.1L13.3,39.5z M56.5,85.1l-9.9-11.3l0-10.5
	c3.7,3.9,7.2,7.5,10.1,10.7c2.1,1.9,2.8,5.3,2.8,5.4l3.6,12.2C61.2,90.2,59.2,88.1,56.5,85.1z M93.8,77.7L76.2,89.9
	c-3.7,2.2-6.5,3.2-8.7,3.2c-0.7,0-1.3-0.1-1.9-0.3l-4.1-14c0-0.1-0.2-1-0.7-2.2l28.6-16.6c0.2-0.1,0.4-0.3,0.7-0.5
	c1.1,2.2,2.2,4.9,3.1,7.5C94.9,72.8,94.8,76.5,93.8,77.7z"/>
</svg>
