<?xml version="1.0" encoding="utf-8"?>
<!-- Generator: Adobe Illustrator 22.1.0, SVG Export Plug-In . SVG Version: 6.00 Build 0)  -->
<svg version="1.1" id="Layer_1" xmlns="http://www.w3.org/2000/svg" xmlns:xlink="http://www.w3.org/1999/xlink" x="0px" y="0px"
	 viewBox="0 0 112 112" style="enable-background:new 0 0 112 112;" xml:space="preserve">
<style type="text/css">
	.st0{stroke:#FFFFFF;stroke-miterlimit:10;}
</style>
<path class="st0" d="M106.2,56.5c-10.5-10.5-21-21-31.6-31.6C69,19.3,62.8,13.2,57.1,7.5c-2.1-2.1-5.9-6.2-8.5-6.7
	c-3.5-0.6-6,1.7-8.7,4.5c-5.1,5.1-10.1,10.1-15.3,15.3C17.1,28.3,9.6,35.8,1.9,43.5c-0.9,0.9-1.1,2.3-0.2,3.2
	c4.6,4.6,9.1,9.1,13.8,13.8c-0.3,1.1-0.7,2.3-0.9,3.4c-0.8,2.9,3.5,4.4,4.3,1.5c0.1-0.2,0-0.5-0.1-0.6c1.9,1.9,3.9,3.9,5.9,5.9
	c-0.3,1.2-0.3,2-0.6,3.3c-0.8,2.9,3.7,4.4,4.4,1.4c0.1-0.2,0.2-0.6,0.1-0.7c1.9,1.9,3.9,3.9,5.9,5.9c-0.3,1.2-0.3,2-0.6,3.3
	C33,86.6,37.5,88,38.2,85c0.1-0.2,0.2-0.6,0.1-0.7c1.9,1.9,3.9,3.9,5.9,5.9c-0.3,1.2-0.3,2-0.6,3.2c-0.8,2.9,3.7,4.4,4.4,1.4
	c0.1-0.2,0.2-0.6,0.1-0.7c1.9,1.9,3.9,3.9,5.9,5.9c-0.3,1.2-0.3,2-0.6,3.2c-0.8,2.9,3.7,4.4,4.4,1.4c0.1-0.2,0.2-0.6,0.1-0.7
	c2.1,2.1,4.3,4.3,6.4,6.4c0.5,0.5,1.4,0.5,1.8,0.5l0.2-0.1l0.5,0.2c0.6,0,1.5,0.1,2-0.5c9.7-9.7,19.4-19.4,29.1-29.1
	c4.2-4.2,8.3-8.3,12.5-12.5C114.6,64.7,109.3,59.6,106.2,56.5z M99.4,55.9c-3.2,0-7.4,0.6-9.9,2.5l-1.4,0.8l0.9,0.9
	c1,1,2.4,2.1,2.9,3.2L67.5,87.9l-5.6-5.6l31.9-31.9C95.4,52.1,97.7,54.4,99.4,55.9L99.4,55.9z M92.9,65.6c1.9,6.1-0.2,13-1.7,16
	c-5,5-10.1,10.1-15,15L69,89.4L92.9,65.6z M92,59.3c1.8-0.9,4.5-1.4,7.9-1.4c0.8,0,1.5,0,1.9,0c0.3,1.2,0.8,6-7,17.1
	C95.9,70.2,95.9,64,92,59.3z M92.2,48.8L60.3,80.7l-6.4-6.4l31.9-31.9c1.6,1.6,1.7,1.7,2.6,2.6C89.5,46.1,91.4,48,92.2,48.8z
	 M46.8,67.2l31.9-31.9c1.6,1.6,3.9,3.9,5.5,5.6L52.3,72.8L46.8,67.2z M77.1,33.7L45.2,65.6l-6.4-6.4l31.9-31.9
	C73,29.7,74.6,31.3,77.1,33.7z M31.5,52.1l31.9-31.9c1.6,1.6,3.9,3.9,5.5,5.6L37.2,57.6L31.5,52.1z M61.9,18.6L30,50.5l-5.6-5.6
	l32-31.9C57.9,14.5,59.5,16.2,61.9,18.6z M32.2,18.8C36.8,14.2,45,6.2,45,6.2c2.8-2.6,4.6-0.2,6,1.1c0.3,0.3,3,3.2,3.8,3.9l-31.9,32
	l-7.6-7.6C20.8,30.2,26.7,24.5,32.2,18.8z M56.9,89.3c0-0.6,0.2-1,0.6-1.5c0.3-0.3,0.9-0.6,1.5-0.6c0.6,0,1,0.2,1.5,0.6
	s0.6,0.9,0.6,1.5c0,0.2,0,0.6-0.1,0.8c-1-1-2.8-1.1-3.7,0.1C56.9,89.8,56.9,89.5,56.9,89.3z M61.1,92.9c0.3-0.2,0.6-0.3,0.8-0.7
	c0.8-0.8,1.2-1.9,1.2-3c0-1.1-0.5-2.3-1.2-3c-1.6-1.6-4.4-1.6-6,0c-0.8,0.8-1.2,1.9-1.2,3c0,1.1,0.5,2.3,1.2,3
	c0.1,0.1,0.2,0.2,0.5,0.3c-0.1,0.6-0.2,1-0.3,1.6c-1.9-2-3.9-3.9-5.9-6c0.5-1.7,0.9-3.4,1.2-5.1c0.3-0.2,0.6-0.3,0.8-0.7
	c0.8-0.8,1.2-1.9,1.2-3c0-1.1-0.5-2.3-1.2-3c-1.6-1.6-4.4-1.6-6,0c-0.8,0.8-1.2,1.9-1.2,3c0,1.1,0.5,2.3,1.2,3
	c0.1,0.1,0.2,0.2,0.5,0.3c-0.1,0.5-0.2,1-0.3,1.5c-1.9-2-3.9-3.9-5.9-6c0.5-1.7,0.9-3.4,1.2-5.1c0.3-0.2,0.6-0.3,0.8-0.7
	c0.8-0.8,1.2-1.9,1.2-3c0-1.1-0.5-2.3-1.2-3c-1.6-1.6-4.4-1.6-6,0c-0.8,0.8-1.2,1.9-1.2,3c0,1.1,0.5,2.3,1.2,3
	c0.1,0.1,0.2,0.2,0.5,0.3c-0.1,0.5-0.2,1-0.3,1.5c-1.9-1.9-3.9-3.9-5.9-5.9c0.5-1.7,0.9-3.4,1.2-5.1c0.3-0.2,0.6-0.3,0.8-0.7
	c0.8-0.8,1.2-1.9,1.2-3s-0.5-2.3-1.2-3c-1.6-1.6-4.4-1.6-6.1,0c-0.8,0.8-1.2,1.9-1.2,3s0.5,2.3,1.2,3c0.1,0.1,0.2,0.2,0.5,0.3
	c-0.1,0.5-0.2,1-0.3,1.5c-1.9-1.9-3.9-3.9-5.9-5.9c0.5-1.7,0.9-3.4,1.2-5.1c0.3-0.2,0.6-0.3,0.8-0.7c1.7-1.7,1.7-4.4,0-6
	c-1.6-1.6-4.4-1.6-6,0c-1.7,1.7-1.7,4.4,0,6c0.1,0.1,0.2,0.2,0.5,0.3c-0.1,0.5-0.2,1-0.3,1.5c-3.4-3.4-6.9-6.8-10.3-10.1
	c2.5-2.5,5-5,7.3-7.3l61,61c-2.4,2.4-4.8,4.8-7.3,7.3c-2.4-2.4-4.8-4.8-7.1-7.1C60.6,96.7,60.6,94.6,61.1,92.9z M47.1,79.5
	c0-0.6,0.2-1,0.6-1.5c0.3-0.3,0.9-0.6,1.5-0.6c0.6,0,1,0.2,1.5,0.6c0.3,0.3,0.6,0.9,0.6,1.5c0,0.2,0,0.6-0.1,0.8
	c-1-1-2.8-1.1-3.7,0.1C47.1,80,47.1,79.7,47.1,79.5z M37.3,69.5c0-0.6,0.2-1,0.6-1.5c0.3-0.3,0.9-0.6,1.5-0.6c0.6,0,1,0.2,1.5,0.6
	c0.3,0.3,0.6,0.9,0.6,1.5c0,0.2,0,0.6-0.1,0.8c-0.9-1-2.8-1.1-3.7,0.1C37.3,70.2,37.3,69.9,37.3,69.5z M27.5,59.7
	c0-0.6,0.2-1,0.6-1.5c0.3-0.3,0.9-0.6,1.5-0.6s1,0.2,1.5,0.6c0.3,0.3,0.6,0.9,0.6,1.5c0,0.2,0,0.6-0.1,0.8c-1-1-2.8-1.1-3.7,0.1
	C27.5,60.3,27.5,60.1,27.5,59.7z M18.2,48.6c0.3-0.3,0.9-0.6,1.5-0.6s1,0.2,1.5,0.6c0.6,0.6,0.8,1.5,0.5,2.1c-1-1-2.8-1.1-3.7,0.1
	C17.4,50,17.6,49.1,18.2,48.6z M104.9,68c-1.4,1.4-2.8,2.8-4.2,4.2c2.6-5.9,3.4-9.8,3-11.6c0.1,0.1,0.2,0.2,0.2,0.2
	C107.6,64.2,107.5,65.5,104.9,68z"/>
</svg>
