<?xml version="1.0" encoding="utf-8"?>
<!-- Generator: Adobe Illustrator 22.1.0, SVG Export Plug-In . SVG Version: 6.00 Build 0)  -->
<svg version="1.1" id="Layer_1" xmlns="http://www.w3.org/2000/svg" xmlns:xlink="http://www.w3.org/1999/xlink" x="0px" y="0px"
	 viewBox="0 0 100 100" style="enable-background:new 0 0 100 100;" xml:space="preserve">
<style type="text/css">
	.st0{stroke:#FFFFFF;stroke-miterlimit:10;}
</style>
<path class="st0" d="M84.7,31.3C77.7,24.2,69.4,20.8,58,20.1h-0.1c-1.4,0-2.7,0-6,13.8c-2,0.5-3.9,1.2-5.8,2.2
	c-2.7,0.3-4.9-0.5-7.6-2.2c-3.2-2.1-9.4-10.1-12-16.7c1.4-4.5-2.7-6.4-4-7.1c-0.3-0.1-0.5-0.2-0.9-0.2c-3.4,0-12,10-14.8,20.2
	c-0.4,1.3-0.6,2.6-0.9,3.8l-0.1,0.1l0.1,0.1C3.5,46.2,6,57.1,12.9,64.1l27.9,27.4c4.4,4.1,9.5,6.1,15.2,6.1
	c9.8,0,21.3-6.5,30.5-17.4C98.6,66,97.8,44.5,84.7,31.3z M58.7,23.9c2.3,0.2,4.5,0.5,6.6,0.9c-0.4,1.5-0.6,3-1,4.5
	c-0.5,2.6-1.1,5-1.6,7.1c-2.1-0.8-4.6-1.2-7.2-0.9C56.4,30.8,57.8,25.6,58.7,23.9z M47.3,47.6c2.7-2.7,6.2-4.1,10.1-4.1
	c3.8,0,7.3,1.5,10.1,4.1c5.5,5.5,5.5,14.6,0,20.1c-2.7,2.7-6.2,4.1-10.1,4.1s-7.3-1.5-10.1-4.1c-2.7-2.7-4.1-6.2-4.1-10.1
	c0-3.3,1.1-6.5,3.2-9C46.7,48.3,47.1,47.9,47.3,47.6z M58.2,41.6L58.2,41.6c0,0-0.6-0.1-1-0.1c-4.3,0-8.2,1.6-11.3,4.7
	c-0.3,0.3-0.5,0.6-0.8,0.9c-1.5,1.2-3.9,1.3-6.4,0.8l0.1-0.1c0.9-1.6,2.1-3.2,3.5-4.5c3.1-3.1,7.1-5.2,11.4-6v0.1
	c3.1-0.5,5.8-0.3,8.1,0.6C60.9,40.3,60.1,41.8,58.2,41.6z M25.6,19.9c3,6.5,8.7,13.5,11.8,15.6c2,1.4,3.8,2.2,5.7,2.5
	c-1.2,0.8-2.4,1.8-3.4,2.8c-1.4,1.4-2.6,2.8-3.6,4.5c-0.8,0-2.7-0.3-5.5-1.6c-4.4-2.2-6.6-6.6-7.1-8.6
	C23.2,33.5,24.5,24.5,25.6,19.9z M43.3,88.8L15.5,61.4C9.1,55.2,7.9,45.8,9,37.5l55,55c-2.7,0.9-5.4,1.5-8,1.5
	C51.3,93.9,47,92.2,43.3,88.8z M83.7,77.9c-5.5,6.5-11.8,11.3-17.9,13.9L9.2,35.2c0.3-1.4,0.5-2.7,0.9-3.9
	c2.6-9.2,9.3-16.4,11.3-17.5c1.9,1,1.9,1.6,1.5,2.8C21.6,19.7,19.1,33.1,20,36c0.8,2.7,3.6,8.2,9.1,10.9c0.8,0.5,1.6,0.7,2.4,1V48
	c0.4,0.1,0.7,0.2,1.2,0.4c2.5,0.7,5.8,1.7,8.8,1.7c0.6,0,1.3-0.1,1.8-0.2c-1.3,2.3-1.9,4.9-1.9,7.7C41.4,62,43,66,46.1,69
	c3,3,7.1,4.7,11.4,4.7S65.8,72,68.8,69c6.2-6.2,6.2-16.4,0-22.7c-2-2-4.4-3.4-7-4.1c2.1-2.3,3.1-7.1,4.3-12.6c0.3-1.5,0.6-2.9,1-4.4
	c6,1.6,10.8,4.4,15.1,8.7C94,45.7,94.6,65,83.7,77.9z"/>
<path class="st0" d="M57.3,67.9c2.7,0,5.3-1.1,7.2-3c1.9-1.9,3-4.5,3-7.2s-1.1-5.3-3-7.2c-1.9-1.9-4.5-3-7.2-3s-5.3,1.1-7.2,3
	c-1.9,1.9-2.9,4.5-2.9,7.2s1.1,5.3,3,7.2S54.6,67.9,57.3,67.9z M51.4,51.7c1.6-1.6,3.7-2.5,6-2.5c2.3,0,4.4,0.9,6,2.5s2.5,3.7,2.5,6
	c0,2.3-0.9,4.4-2.5,6c-1.6,1.6-3.7,2.5-6,2.5c-2.3,0-4.4-0.9-6-2.5c-1.6-1.6-2.5-3.7-2.5-6C48.9,55.4,49.8,53.3,51.4,51.7z"/>
</svg>
