<?xml version="1.0" encoding="utf-8"?>
<!-- Generator: Adobe Illustrator 22.1.0, SVG Export Plug-In . SVG Version: 6.00 Build 0)  -->
<svg version="1.1" id="Layer_1" xmlns="http://www.w3.org/2000/svg" xmlns:xlink="http://www.w3.org/1999/xlink" x="0px" y="0px"
	 viewBox="0 0 100 100" style="enable-background:new 0 0 100 100;" xml:space="preserve">
<style type="text/css">
	.st0{stroke:#FFFFFF;stroke-miterlimit:10;}
</style>
<path class="st0" d="M85,59.6l-55-55c-1.7-1.7-4.1-2.5-6.9-2.5c-4.6,0-9.6,2.3-13.4,6.1l-2.5,2.5c-3,3-5.1,6.8-5.7,10.5
	c-0.7,3.8,0.2,7.2,2.4,9.4l54.7,54.7l0.3,0.3l39.3,12.9L85,59.6z M89.2,84.3c-1.3,0-2.7,0.3-4,1.6c-1.1,1.1-1.5,2.4-1.6,3.6
	l-21.9-7.2c1.6-3.9,4.4-12,3-17.6c6.4,1.1,13.3-1.1,16.9-2.5L89.2,84.3z M16,37l-5.1-5.1c-0.6-0.6-0.6-2.3,0-4.2
	c0.9-2.6,2.8-5.5,5.3-8l2.5-2.5c5.1-5.1,10.5-6.5,12.3-5.8l5.5,5.5c-3.6,0.8-7.7,3.2-11.3,6.8l-2.5,2.5c-3,3-5.3,6.3-6.4,9.4
	C16.3,36.1,16.1,36.5,16,37z M28.1,26.6c5.1-5.1,10.5-6.6,12.3-5.9l39.9,39.9c-3.8,1.4-10.4,3.3-16.2,2L28.1,26.6L28.1,26.6z
	 M5.5,21.8c0.5-2.9,2.2-5.9,4.6-8.4l2.5-2.5c3-3,7.1-4.9,10.5-4.9c1.7,0,3.2,0.5,4.1,1.4l0,0c-3.6,0.8-7.7,3.2-11.3,6.8l-2.5,2.5
	c-3,3-5.2,6.4-6.3,9.6c-0.2,0.5-0.3,0.9-0.4,1.4C5.5,26.5,5,24.3,5.5,21.8z M20.1,41.1c-0.6-0.6-0.6-2.2,0.1-4.1
	c0.9-2.5,2.9-5.3,5.5-7.9l1-1l35.4,35.4l0.2,0.4c2.2,4.6-0.5,12.9-2.2,17.2L20.1,41.1z"/>
</svg>
