<?xml version="1.0" encoding="utf-8"?>
<!-- Generator: Adobe Illustrator 22.1.0, SVG Export Plug-In . SVG Version: 6.00 Build 0)  -->
<svg version="1.1" id="Layer_1" xmlns="http://www.w3.org/2000/svg" xmlns:xlink="http://www.w3.org/1999/xlink" x="0px" y="0px"
	 viewBox="0 0 100 100" style="enable-background:new 0 0 100 100;" xml:space="preserve">
<style type="text/css">
	.st0{stroke:#FFFFFF;stroke-miterlimit:10;}
</style>
<path class="st0" d="M10.9,18.4l-1.5,2.2l30.3,78.8L61,76.8l9.1,3.4l0.8-14.7l21-17.4L10.9,18.4z M67,73.6l-2-4.7l-7.1-6.5l0.2-5
	l9.4,7.1L67,73.6z M22.2,30.2l34.4,26L56.4,61L22.2,30.2z M63.1,69.4l-3.4,3.9L43.4,90.6L54,61.2L63.1,69.4z M64.2,70.8l1.8,4.4
	l-4.4-1.7L64.2,70.8z M17.1,24.3l67,24.8l-26.6,5.9L17.1,24.3z M15.1,26.2L52.6,60L40.7,92.9L15.1,26.2z M68.5,63.2l-9.2-7l24.1-5.4
	L68.5,63.2z"/>
</svg>
