<?xml version="1.0" encoding="utf-8"?>
<!-- Generator: Adobe Illustrator 22.1.0, SVG Export Plug-In . SVG Version: 6.00 Build 0)  -->
<svg version="1.1" id="Layer_1" xmlns="http://www.w3.org/2000/svg" xmlns:xlink="http://www.w3.org/1999/xlink" x="0px" y="0px"
	 viewBox="0 0 96 96" style="enable-background:new 0 0 96 96;" xml:space="preserve">
<style type="text/css">
	.st0{fill:#FFFFFF;stroke:#000000;stroke-miterlimit:10;}
</style>
<path class="st0" d="M96,7v30.4C96,62.2,73.5,71,52.4,71H52v18c0,0.8-0.4,1.4-1.1,1.8c-0.7,0.3-1.5,0.3-2.1-0.2l-48-35.9
	c-0.5-0.4-0.8-1-0.8-1.6l0,0c0-0.6,0.3-1.2,0.8-1.6l48-36.1c0.6-0.5,1.4-0.5,2.1-0.2s1.1,1,1.1,1.8v18h0.4C64.3,35,92,32.3,92,7
	c0-1.1,0.9-2,2-2S96,5.9,96,7z M48,85V69c0-1.1,0.9-2,2-2h2.4C71.5,67,92,59.2,92,37.4V22.6C85.7,33.2,72,39,52.4,39H50
	c-1.1,0-2-0.9-2-2V21L5.3,53.1L48,85z"/>
</svg>
