<?xml version="1.0" encoding="utf-8"?>
<!-- Generator: Adobe Illustrator 22.1.0, SVG Export Plug-In . SVG Version: 6.00 Build 0)  -->
<svg version="1.1" id="Layer_1" xmlns="http://www.w3.org/2000/svg" xmlns:xlink="http://www.w3.org/1999/xlink" x="0px" y="0px"
	 viewBox="0 0 142.5 56" style="enable-background:new 0 0 142.5 56;" xml:space="preserve">
<style type="text/css">
	.st0{fill:#FFFFFF;stroke:#000000;stroke-miterlimit:10;}
</style>
<g>
	<g>
		<path class="st0" d="M116.5,47c-11,0-20-9-20-20s9-20,20-20s20,9,20,20S127.5,47,116.5,47z M116.5,12c-8.3,0-15,6.7-15,15
			s6.7,15,15,15s15-6.7,15-15S124.8,12,116.5,12z"/>
	</g>
</g>
<g>
	<g>
		<path class="st0" d="M71.5,47c-11,0-20-9-20-20s9-20,20-20s20,9,20,20S82.5,47,71.5,47z M71.5,12c-8.3,0-15,6.7-15,15
			s6.7,15,15,15s15-6.7,15-15S79.8,12,71.5,12z"/>
	</g>
</g>
<g>
	<g>
		<path class="st0" d="M26.5,47c-11,0-20-9-20-20s9-20,20-20s20,9,20,20S37.5,47,26.5,47z M26.5,12c-8.3,0-15,6.7-15,15
			s6.7,15,15,15s15-6.7,15-15S34.8,12,26.5,12z"/>
	</g>
</g>
</svg>
