<?xml version="1.0" encoding="utf-8"?>
<!-- Generator: Adobe Illustrator 22.1.0, SVG Export Plug-In . SVG Version: 6.00 Build 0)  -->
<svg version="1.1" id="Layer_1" xmlns="http://www.w3.org/2000/svg" xmlns:xlink="http://www.w3.org/1999/xlink" x="0px" y="0px"
	 viewBox="0 0 100 100" style="enable-background:new 0 0 100 100;" xml:space="preserve">
<style type="text/css">
	.st0{stroke:#FFFFFF;stroke-miterlimit:10;}
</style>
<path class="st0" d="M98.5,71.4c-0.2-0.5-22.2-47.9-61-70.4l-1.3-0.7L18.7,16l6.3,6.2l-6.2,8.1l44.4,34.1c-0.4,0.4-0.8,0.8-1.2,1.3
	L13.8,32.5l-0.7,0c-1.9,0.1-8.3,0.7-10.1,3.9l-0.6,1l1.1,2c-0.3,0.7-0.6,1.5-0.8,2.2L2.3,43l81.5,55.9l1.8-3.7l2.1-0.1l11.2-22.9
	L98.5,71.4z M24.5,16.1l12.3-11c34.1,20.5,54.6,60.8,57.7,67.1L93.6,74c-11.8-9.7-18.2-14.7-18.8-14.9c-0.2-0.1-0.5-0.2-1.4,0.3
	L24.5,16.1z M29.1,23.5l2.2,1.9l-3,3.7l-3.7,0.1L29.1,23.5z M26.5,31.2l2.7-0.1l3.6-4.4l38.7,33.7c-0.9,0.6-2.1,1.4-3.6,2.5
	L26.5,31.2z M7.1,41.4c0.2-0.4,0.4-0.9,0.5-1.2L7.7,40L83,91.6L82.3,93L7.1,41.4z M85.4,90.8L7.8,37.6c1.2-0.5,3.1-0.9,4.9-1
	l50.4,34.7l1.1-1.9c0.4-0.7,2.1-2.4,3.5-3.7l0.1-0.1l0,0c2.5-1.9,5.5-4,6.5-4.5c1.8,1.3,11.3,9,18.4,14.8L85.4,90.8z"/>
<path class="st0" d="M33.4,28.5l-3,3.7l7.3,6l3-3.7L33.4,28.5z M37.4,35.4L33.2,32l0.5-0.6l4.2,3.5L37.4,35.4z"/>
<path class="st0" d="M90.4,76.6c-0.2-0.8-0.6-1.6-1.3-2.1c-0.5-0.4-1.2-0.6-1.8-0.6c-1.1,0-2.1,0.5-2.7,1.4c-1,1.5-0.6,3.5,0.8,4.5
	c0.5,0.4,1.2,0.6,1.8,0.6c1.1,0,2.1-0.5,2.7-1.4C90.4,78.3,90.5,77.4,90.4,76.6z M88.2,77.8c-0.4,0.5-1.1,0.7-1.7,0.3
	c-0.6-0.4-0.7-1.1-0.3-1.7c0.2-0.3,0.6-0.5,1-0.5c0.2,0,0.5,0.1,0.7,0.2c0.3,0.2,0.4,0.5,0.5,0.8C88.5,77.3,88.4,77.6,88.2,77.8z"/>
</svg>
