<?xml version="1.0" encoding="utf-8"?>
<!-- Generator: Adobe Illustrator 22.1.0, SVG Export Plug-In . SVG Version: 6.00 Build 0)  -->
<svg version="1.1" id="Layer_1" xmlns="http://www.w3.org/2000/svg" xmlns:xlink="http://www.w3.org/1999/xlink" x="0px" y="0px"
	 viewBox="0 0 96 96" style="enable-background:new 0 0 96 96;" xml:space="preserve">
<style type="text/css">
	.st0{fill:#FFFFFF;stroke:#000000;stroke-miterlimit:10;}
</style>
<path class="st0" d="M2,5c1.1,0,2,0.9,2,2c0,25.3,27.7,28,39.6,28H44V17c0-0.8,0.4-1.4,1.1-1.8s1.5-0.3,2.1,0.2l48,36.1
	c0.5,0.4,0.8,1,0.8,1.6l0,0c0,0.6-0.3,1.2-0.8,1.6l-48,35.9c-0.6,0.5-1.4,0.5-2.1,0.2c-0.7-0.3-1.1-1-1.1-1.8V71h-0.4
	C22.5,71,0,62.2,0,37.4V7C0,5.9,0.9,5,2,5z M90.7,53.1L48,21v16c0,1.1-0.9,2-2,2h-2.4C24,39,10.3,33.2,4,22.6v14.8
	C4,59.2,24.5,67,43.6,67H46c1.1,0,2,0.9,2,2v16L90.7,53.1z"/>
</svg>
