<?xml version="1.0" encoding="utf-8"?>
<!-- Generator: Adobe Illustrator 22.1.0, SVG Export Plug-In . SVG Version: 6.00 Build 0)  -->
<svg version="1.1" id="Layer_1" xmlns="http://www.w3.org/2000/svg" xmlns:xlink="http://www.w3.org/1999/xlink" x="0px" y="0px"
	 viewBox="0 0 100 100" style="enable-background:new 0 0 100 100;" xml:space="preserve">
<style type="text/css">
	.st0{stroke:#FFFFFF;stroke-miterlimit:10;}
</style>
<path class="st0" d="M87.6,69l-0.2-7.8L30.8,4.6c-0.8-0.8-1.9-0.8-2.5-0.8c0,0-0.1,0-0.1,0c-1.5-1-2.9-1.4-4.4-1.4
	c-2.7,0-5.5,1.6-9,5.1l-8.1,8.1c-5.2,5.2-6,8.6-2.9,12.7c0,0.6,0,1.6,0.8,2.4l56.7,56.7l7.9,0.1l20.7,10.3l8.3-8.3L87.6,69z
	 M61.3,81.7l-1.3-1.3c1-2.1,3.8-6.1,9.1-11.4c5.5-5.5,9.6-8.2,11.5-8.9l1.3,1.3c-4.4,2-10.5,8.1-11.4,9c-3.2,3.2-5.9,6.4-7.8,9.1
	C62.1,80.3,61.6,81.1,61.3,81.7z M35.8,15.5c-0.7,0.3-1.5,0.8-2.4,1.4c-2.6,1.7-5.8,4.4-8.9,7.6c-3.2,3.2-5.9,6.4-7.8,9.1
	c-0.6,0.8-1,1.6-1.4,2.3l-4.9-4.9c1-2.1,3.8-6.1,9.1-11.4c5.4-5.4,9.5-8.1,11.4-8.8L35.8,15.5z M25.9,25.8c5.4-5.4,9.5-8.1,11.4-8.9
	l3.2,3.2c-2,0.3-3.8,1.1-5.1,2.4c-2.4,2.4-3.1,6.2-1.9,10.7c1.1,4.3,3.9,8.8,7.7,12.6s8.3,6.6,12.6,7.7c1.5,0.4,2.8,0.6,4.1,0.6
	c2.7,0,5-0.8,6.6-2.5c1.3-1.3,2.1-3.1,2.4-5.1l5.6,5.6c-0.7,0.3-1.5,0.8-2.4,1.4c-2.6,1.7-5.8,4.4-8.9,7.6c-3.2,3.2-5.9,6.4-7.8,9.1
	c-0.6,0.8-1,1.6-1.4,2.3L16.8,37.2C17.8,35.2,20.6,31.1,25.9,25.8z M65.1,44.8c0.1,2.3-0.6,4.3-1.9,5.6c-1.9,1.9-5,2.4-8.8,1.4
	c-4-1.1-8.2-3.6-11.7-7.2c-3.6-3.6-6.2-7.8-7.2-11.7c-1-3.8-0.5-6.9,1.4-8.8c1.3-1.3,3.2-1.9,5.5-1.9L65.1,44.8z M62.7,62.6
	c5.5-5.5,9.6-8.2,11.5-8.9l4.9,4.9c-0.7,0.3-1.5,0.8-2.4,1.4c-2.6,1.7-5.8,4.4-8.9,7.6c-3.2,3.2-5.9,6.4-7.8,9.1
	c-0.6,0.8-1,1.6-1.4,2.3L53.6,74C54.5,72,57.4,67.9,62.7,62.6z M9.5,18.3l8.1-8.1c2.6-2.6,4.6-3.9,6.1-3.9c0.5,0,1.1,0.2,1.7,0.5
	c-0.4,0.2-0.8,0.5-1.2,0.8c-2.6,1.7-5.8,4.4-8.9,7.6c-3.2,3.2-5.9,6.4-7.8,9.1c-0.3,0.4-0.6,0.8-0.8,1.2C5.5,23.9,5.2,22.6,9.5,18.3
	z M7.7,27.8c1.1-2.1,3.9-6,9-11.1c5.1-5.1,9-7.8,11-8.7c0.2,0,0.3,0,0.5,0c0,0,0.1,0,0.1,0l1.1,1.1c-0.7,0.3-1.5,0.8-2.4,1.4
	c-2.6,1.7-5.8,4.4-8.9,7.6c-3.2,3.2-5.9,6.4-7.8,9.1c-0.6,0.8-1,1.6-1.4,2.3l-1.2-1.2C7.7,28.1,7.7,27.9,7.7,27.8z M89,92.9
	l-18.9-9.4l-7.2-0.1l-0.2-0.2c1-2.1,3.8-6.1,9.1-11.4c5.5-5.5,9.6-8.2,11.5-8.9l0.1,0.1l0.2,7l9.6,18.7L89,92.9z"/>
</svg>
