<?xml version="1.0" encoding="utf-8"?>
<!-- Generator: Adobe Illustrator 22.1.0, SVG Export Plug-In . SVG Version: 6.00 Build 0)  -->
<svg version="1.1" id="Layer_1" xmlns="http://www.w3.org/2000/svg" xmlns:xlink="http://www.w3.org/1999/xlink" x="0px" y="0px"
	 viewBox="0 0 100 100" style="enable-background:new 0 0 100 100;" xml:space="preserve">
<style type="text/css">
	.st0{stroke:#FFFFFF;stroke-miterlimit:10;}
</style>
<path class="st0" d="M88.9,48.9L88.2,48h-0.9c-0.5,0-1.1,0.1-1.8,0c-0.2-0.2-0.4-0.3-0.6-0.5c-0.6-0.8-1.3-1.7-2.4-2.2
	c-0.9-0.4-2.1-0.3-3-0.1c-0.1,0-0.2,0-0.3,0.1c0-0.2-0.1-0.4-0.1-0.5c-0.3-1-0.6-2.3-1.7-3.1c-0.9-0.7-1.9-0.7-2.6-0.7
	c-0.2,0-0.4,0-0.5,0c-0.1-0.2-0.2-0.6-0.3-0.8c-0.3-0.9-0.6-1.9-1.5-2.7c-0.9-0.8-2-0.9-2.8-1c-0.2,0-0.4,0-0.5-0.1
	c0-0.2,0-0.4-0.1-0.6c-0.1-0.9-0.2-2.1-1-2.9c-0.9-0.9-2-1.1-2.9-1.3c-0.1,0-0.3-0.1-0.5-0.1c0-0.1,0-0.3,0-0.4
	c0-0.7-0.1-1.8-0.7-2.7c-0.6-0.9-1.6-1.4-2.4-1.8c-0.2-0.1-0.6-0.3-0.8-0.4c0-0.1,0-0.3,0.1-0.5c0.1-0.7,0.2-1.7-0.3-2.7
	c-0.5-1-1.3-1.7-2-2.3c-0.3-0.2-0.7-0.6-0.8-0.7c-0.3-1-0.4-1.7-0.4-2.4l0-0.7L45,1.7L1,45.7l15.2,12.3l0.8,0c0.7,0,1.4,0.1,2.2,0.3
	c0.2,0.1,0.5,0.5,0.7,0.8c0.6,0.7,1.3,1.5,2.3,2c0.5,0.2,1,0.4,1.6,0.4c0.4,0,0.8-0.1,1.1-0.1c0.2,0,0.3-0.1,0.5-0.1
	c0.1,0.1,0.1,0.2,0.3,0.6c0.3,0.7,0.7,1.7,1.9,2.6c0.9,0.7,1.9,0.7,2.7,0.7c0.1,0,0.3,0,0.4,0c0,0.2,0.1,0.3,0.1,0.5
	c0.1,0.9,0.3,2.1,1.3,2.9c0.9,0.8,2,0.9,2.9,1c0.2,0,0.4,0,0.6,0.1c0,0.2,0.1,0.4,0.1,0.5c0.1,0.8,0.2,1.9,1,2.8
	c0.7,0.8,1.8,1.2,2.7,1.5c0.3,0.1,0.6,0.2,0.8,0.3c0,0.1,0,0.4,0,0.5c0,0.7,0.1,1.7,0.7,2.6c0.8,1.1,2.1,1.4,3.1,1.7
	c0.1,0,0.3,0.1,0.5,0.1c0,0.1,0,0.2-0.1,0.3c-0.2,0.8-0.4,1.9,0.1,3c0.5,1.1,1.5,1.8,2.2,2.4c0.2,0.2,0.6,0.4,0.8,0.6
	c0.2,0.7,0.2,1.3,0.2,1.8l0,0.9l12.8,11.4l14-14l-1.1-1.4l10.5-10.5l1.4,1l14.1-14.2L88.9,48.9z M60.5,94.6l-8.7-7.7
	c-0.1-0.7-0.2-1.3-0.4-2.1c-0.3-1.2-1.3-2-2.2-2.7c-0.3-0.2-0.7-0.5-0.9-0.8c0-0.1,0.1-0.3,0.1-0.4c0.2-0.9,0.5-2.2-0.3-3.5
	c-0.7-1.2-2-1.5-3.1-1.8c-0.2-0.1-0.6-0.1-0.8-0.2c0-0.1,0-0.3,0-0.4c0-0.8-0.1-1.9-0.9-2.9c-0.7-0.9-1.8-1.2-2.7-1.6
	c-0.3-0.1-0.7-0.3-0.9-0.3c0-0.2-0.1-0.4-0.1-0.6c-0.1-0.8-0.3-2-1.2-2.9c-0.9-0.9-2.2-1-3.1-1.1c-0.2,0-0.4,0-0.5-0.1
	c0-0.2-0.1-0.4-0.1-0.5c-0.1-0.9-0.4-2.1-1.4-2.9c-1-0.8-2.2-0.9-2.9-0.9c-0.2,0-0.4,0-0.6,0c-0.2-0.1-0.2-0.3-0.4-0.8
	c-0.3-0.7-0.7-1.8-2-2.5c-0.6-0.4-1.3-0.6-2-0.6c-0.4,0-0.8,0.1-1.1,0.1c-0.1,0-0.3,0.1-0.4,0.1c-0.2-0.2-0.6-0.6-0.9-0.9
	c-0.7-0.8-1.4-1.7-2.6-2c-1-0.3-1.9-0.5-2.9-0.5L7,45.4L44.8,7.6l8.7,10.5c0.1,0.9,0.2,1.8,0.6,2.9c0.3,1.1,1.2,1.9,2,2.6
	c0.3,0.3,0.8,0.7,1,0.9c0,0.1,0,0.3-0.1,0.5c-0.1,0.8-0.3,2,0.4,3.2c0.6,0.9,1.5,1.5,2.4,1.9c0.3,0.1,0.7,0.4,0.9,0.5
	c0,0.1,0,0.4,0,0.5c0,0.8,0.1,1.9,0.9,2.9c0.8,1,2.1,1.2,2.9,1.4c0.2,0,0.4,0.1,0.5,0.1c0,0.2,0,0.4,0.1,0.5
	c0.1,0.9,0.2,2.2,1.1,3.1c0.9,0.9,2.1,1.1,2.9,1.2c0.2,0,0.4,0.1,0.6,0.1c0.1,0.2,0.3,0.6,0.3,0.9c0.3,0.9,0.7,2,1.6,2.7
	c1,0.8,2.1,0.9,2.9,0.9c0.1,0,0.3,0,0.4,0c0.1,0.2,0.2,0.6,0.2,0.8c0.3,1.1,0.6,2.4,1.8,3.1c0.5,0.3,1.2,0.5,1.8,0.5
	c0.6,0,1.2-0.1,1.6-0.2c0.1,0,0.3-0.1,0.5-0.1c0.2,0.2,0.6,0.7,0.8,0.9c0.7,0.9,1.4,1.9,2.7,2.2c0.8,0.2,1.5,0.3,2.1,0.4l7.6,8.6
	l-8.6,8.6l-40-40C41,25.2,33.2,25.3,28.5,30c-2,2-3.1,4.9-3.1,8c0,3.2,1.2,6.2,3.4,8.4l40,40L60.5,94.6z M82.8,69.8l-1.6,1.6
	L38.1,28.4c2.3,0.2,4.4,1.1,6,2.7L82.8,69.8z M69,83.6L30.2,44.9c-1.8-1.8-2.8-4.3-2.8-7c0-2.6,0.9-4.9,2.5-6.5
	c1.5-1.5,3.4-2.5,5.5-2.9l44.4,44.4L69,83.6z"/>
<path class="st0" d="M45.9,45.1c-3.3,0-6.1,2.7-6.1,6.1c0,3.3,2.7,6.1,6.1,6.1c3.3,0,6.1-2.7,6.1-6.1C52,47.8,49.3,45.1,45.9,45.1z
	 M45.9,55.2c-2.2,0-4.1-1.8-4.1-4.1c0-2.2,1.8-4.1,4.1-4.1s4.1,1.8,4.1,4.1C50,53.4,48.2,55.2,45.9,55.2z"/>
<polygon class="st0" points="47,48 45,48 45,50 43,50 43,52 45,52 45,54 47,54 47,52 49,52 49,50 47,50 "/>
</svg>
