<?xml version="1.0" encoding="utf-8"?>
<!-- Generator: Adobe Illustrator 22.1.0, SVG Export Plug-In . SVG Version: 6.00 Build 0)  -->
<svg version="1.1" id="Layer_1" xmlns="http://www.w3.org/2000/svg" xmlns:xlink="http://www.w3.org/1999/xlink" x="0px" y="0px"
	 viewBox="0 0 100 100" style="enable-background:new 0 0 100 100;" xml:space="preserve">
<style type="text/css">
	.st0{stroke:#FFFFFF;stroke-miterlimit:10;}
</style>
<path class="st0" d="M88.6,48.5l-1.4-1.7L85,47.2l-3,0.4l-2-32.5l-0.3-5.3l-2-2.3L73,12.8l-26.7,31L45.2,45l0.1,1.7l0.1,1.3
	L24.6,28.2l-14.3-14l-5.6-1.1l13.8,20.1l16.1,24.5l-0.6,0l-1.3,0.1l-1,0.9l-23,19.1l-6.7,5.5l3.3,2l6.3-0.5l47.8-3.5l7.3,4.2l3.5,2
	l2-3.5L84.5,62l14.3,2.2L88.6,48.5z M81.9,56.5l1.2-2.1l7.5,5.3L81.9,56.5z M85.6,51.1l4.1,5.3l-7-4.9L85.6,51.1z M78.2,50.7
	L75,53.9l-9.9-1.5l10.9-35.6L78.2,50.7z M57.6,55.6l10.1,5.9l-3,3.1L57.6,55.6z M64.2,70.3l-9.1-3.1l-1.3-0.6l0.6-11.6l9,11.5
	L64.2,70.3z M63.5,56.8l-0.2-2.6l10,1.5L69.1,60L63.5,56.8z M73.6,18.2L63.2,52L50,45.6L73.6,18.2z M61.3,53.3l0.2,2.2l-7.7-4.8
	l-3.9,2.6l-0.4-5.8L61.3,53.3z M52.5,54l-0.6,11.5l-9.5-4.9L52.5,54z M21.8,31.1l25.3,24l-6.7,4.4L21.8,31.1z M34.2,61.8l5.8-0.3
	l12.1,6.2L12.7,79.6L34.2,61.8z M16.6,80.5l38.1-11.4l10.4,3.6l-5,4.6L16.6,80.5z M62,78.4l4.5-4.1l1.3,7.4L62,78.4z M68,71.6
	L66.4,71l-0.9-4.6l0.1,0L79.7,52l0.1,0l1.7,1.2L68.7,75.6L68,71.6z M69.6,80.3l-0.3-1.7l0,0l11.6-20.5l0.9,0.4L69.6,80.3z"/>
</svg>
